<svg width="116" height="116" viewBox="0 0 116 116" fill="none" xmlns="http://www.w3.org/2000/svg">
    <mask id="mask0_73_573" style="mask-type:alpha" maskUnits="userSpaceOnUse" x="0" y="0" width="116" height="116">
    <circle cx="57.8098" cy="57.8098" r="57.8098" fill="#D9D9D9"/>
    </mask>
    <g mask="url(#mask0_73_573)">
    <path d="M89.5019 105.537C89.2366 105.727 88.9333 105.916 88.6679 106.106C88.3647 106.295 88.0993 106.485 87.7961 106.637C87.5307 106.788 87.3032 106.94 87.0379 107.092C87 107.129 86.9621 107.129 86.9242 107.167C86.0523 107.698 85.1425 108.191 84.2327 108.646C83.9673 108.797 83.664 108.949 83.3987 109.063C83.3987 109.063 83.3608 109.101 83.3228 109.101C83.0196 109.252 82.7163 109.404 82.413 109.556C81.8065 109.859 81.1621 110.124 80.5555 110.39C80.2523 110.541 79.9111 110.655 79.6078 110.769C79.3045 110.882 78.9634 111.034 78.6601 111.148C78.3568 111.261 78.0157 111.413 77.7124 111.527C77.7124 111.527 77.7124 111.527 77.6745 111.527C77.3712 111.641 77.03 111.754 76.7268 111.868C76.0444 112.095 75.3242 112.323 74.6418 112.55C74.4143 112.626 74.149 112.702 73.9215 112.778C73.2013 113.005 72.481 113.195 71.7608 113.346C71.4954 113.422 71.23 113.46 70.9268 113.536C70.2444 113.688 69.5242 113.839 68.8418 113.991C68.6902 114.029 68.5764 114.029 68.4248 114.067C68.1974 114.105 67.932 114.143 67.7045 114.18C67.3634 114.218 67.0601 114.294 66.7189 114.332C66.5673 114.37 66.4157 114.37 66.264 114.408C66.0745 114.446 65.847 114.484 65.6196 114.484C65.013 114.559 64.3686 114.635 63.7621 114.711C63.5725 114.749 63.3451 114.749 63.1555 114.787H63.1176C62.8523 114.825 62.5869 114.825 62.3215 114.863C62.0562 114.901 61.7908 114.901 61.5255 114.901C61.3738 114.901 61.1843 114.939 61.0327 114.939C60.7294 114.939 60.464 114.976 60.1987 114.976C59.8196 114.976 59.4784 115.014 59.0993 115.014C58.7202 115.014 58.3791 115.014 58 115.014C57.7346 115.014 57.4693 115.014 57.2039 115.014C41.2065 114.787 26.8392 108.001 16.566 97.2353C16.566 97.2353 16.566 97.1974 16.5281 97.1974C15.3908 96.1739 16.3764 90.7151 20.9634 87.2654C26.7255 82.9059 40.5242 80.1765 40.5242 80.1765C40.5242 80.1765 45.8693 79.3046 65.6954 83.4366C77.2954 85.8628 86.1281 89.3883 91.0562 98.9412C92.0797 100.912 93.1032 103.945 89.5019 105.537Z" fill="white"/>
    <path d="M65.8091 83.0196C73.0875 84.4981 80.8588 86.0902 86.8483 90.9046C88.8575 92.5347 90.1843 94.9229 91.2836 97.2353C91.8143 98.3726 92.3451 99.5477 92.762 100.799C92.9895 101.633 93.3307 102.58 93.1411 103.566C93.1032 103.831 92.8758 104.173 92.6862 104.362C91.8143 105.234 90.8666 105.765 89.9189 106.447C84.3464 110.314 77.9398 113.043 71.3058 114.484C56.5215 117.706 40.5241 115.204 27.5215 107.433C23.2 104.817 19.2196 101.633 15.8078 97.8798C15.4287 97.4249 15.4287 96.6667 15.4287 96.1739C15.4666 95.0366 15.7699 93.9373 16.149 92.9137C17.0588 90.5634 18.2339 88.2131 20.2431 86.583C21.6836 85.5974 23.2379 84.7634 24.83 84.0811C29.8339 81.9582 35.1032 80.4798 40.5241 79.8732C40.979 79.8353 41.0549 80.4798 40.6 80.5556C35.4065 81.617 30.2509 83.2092 25.4366 85.37C23.6928 86.2418 21.8352 87 20.4326 88.3647C19.1058 89.8052 18.1581 91.5869 17.4 93.4066C16.9071 94.5059 16.566 96.2497 16.7176 97.1216C19.1058 99.9647 21.9111 102.467 24.9437 104.627C41.5477 116.227 66.7568 116.986 84.4222 107.319C86.0143 106.447 87.5686 105.461 89.047 104.438C89.7673 103.945 90.5254 103.528 91.0941 102.959C91.132 102.922 91.0941 102.959 91.0941 102.997C91.0941 103.035 91.0562 103.073 91.0562 103.073C91.0941 102.618 90.9424 102.012 90.7529 101.405C90.0705 99.2066 88.9712 96.8941 87.796 94.885C85.9385 91.8902 82.7921 89.9948 79.6078 88.4784C77.4091 87.4549 75.0967 86.6588 72.7464 85.9007C70.396 85.1425 68.0078 84.4981 65.6196 83.9294C65.013 83.7778 65.2026 82.9059 65.8091 83.0196Z" fill="black"/>
    <path d="M102.088 129.041H6.21729C6.21729 129.041 11.8657 117.137 14.3676 103.566C16.1114 94.1647 17.4003 88.668 22.2905 85.6353C25.7402 83.5124 35.4447 80.4418 42.3441 79.4562C45.1493 79.0771 50.7219 78.6601 55.5362 79.0392C59.1755 79.4941 66.6813 81.617 69.5624 82.4131C73.8839 83.6261 83.2473 87.2275 87.3794 91.0183C89.0094 92.5346 92.8761 100.116 95.3781 111.11C98.2591 123.62 102.088 129.041 102.088 129.041Z" fill="black"/>
    <path d="M102.96 129.495C74.9452 129.761 33.9282 130.329 6.25501 130.216C5.42103 130.254 4.81449 129.306 5.19357 128.548C8.83279 120.511 11.6001 111.944 13.306 103.263C14.7086 96.4771 15.5805 87.9098 22.4419 84.3464C25.8158 82.6405 29.3792 81.5033 32.9805 80.4418C39.3112 78.5843 46.021 77.6745 52.6171 77.8641C53.6406 77.902 54.7021 77.9399 55.7635 78.0157C58.038 78.3569 60.2746 78.9255 62.4733 79.4941C64.4446 79.9869 66.4537 80.5556 68.387 81.1242C68.6145 81.2379 68.6903 81.6928 68.804 81.9203C68.9557 82.1856 69.1452 82.1477 69.4106 82.034C69.5243 81.9961 69.638 81.9203 69.7517 81.9582C70.0171 81.9961 70.3962 82.1477 70.6615 82.2235C76.5374 84.119 82.4511 86.3556 87.4171 90.1085C88.1374 90.6392 88.706 91.3595 89.1609 92.1177C90.0707 93.5582 90.8289 95.0366 91.5112 96.5529C93.5583 101.064 95.0746 105.803 96.2119 110.617C97.6903 116.644 99.4341 122.71 102.58 128.093L102.732 128.32L102.808 128.434C103.035 128.624 103.111 129.192 102.96 129.495ZM101.216 128.586C101.026 128.813 101.064 129.306 101.216 129.495L101.178 129.42L101.102 129.268C99.3583 126.539 98.0694 123.506 96.97 120.511C95.8328 117.441 94.9609 114.18 94.2027 110.996C93.1034 106.295 91.6628 101.671 89.7295 97.2732C88.8955 95.4157 88.0615 93.5582 86.8106 92.0039C86.0903 91.2837 85.2563 90.6771 84.3844 90.1085C80.0249 87.3033 75.1348 85.2562 70.2066 83.6641C70.0171 83.5882 69.5622 83.4745 69.3347 83.3987C69.1073 83.3229 69.1073 82.6784 68.9557 82.5268C68.6145 82.2235 68.2354 83.0575 67.8942 82.9817C65.9609 82.451 63.9517 81.9203 61.9805 81.4654C59.6302 80.9346 57.3178 80.3281 54.9674 80.1386C44.5805 79.4562 34.0798 81.6549 24.5269 85.7869C19.9021 87.6824 18.1583 91.966 17.0589 96.5529C16.0733 100.42 15.5047 104.627 14.5949 108.532C12.8511 115.773 10.4249 122.748 7.35436 129.571L6.29292 127.903C33.208 127.827 73.9217 128.244 101.216 128.586Z" fill="black"/>
    <path d="M69.3727 93.1032C68.5767 97.0078 63.4211 99.3581 54.7401 95.8326C45.7178 92.1934 41.8133 83.5124 40.8276 80.9346C46.1727 70.9268 42.4577 63.9895 42.4577 63.9895C54.778 62.9281 65.544 77.3333 65.544 77.3333L67.212 84.4601C67.3636 85.0666 67.6669 85.5974 68.1218 85.9764C68.9178 87.3791 69.8655 90.6013 69.3727 93.1032Z" fill="white"/>
    <path d="M40.6382 81.0483C41.3584 79.949 41.8133 78.6601 42.1166 77.4091C42.6852 74.7934 42.8748 72.1398 42.9127 69.4862V68.5006C42.7989 67.515 42.4578 66.4915 42.0787 65.5817C41.5859 64.3686 43.3676 63.6104 43.9362 64.8235C44.012 64.9751 44.012 65.2405 44.012 65.3921C44.1257 70.5477 44.3532 77.1817 41.0931 81.4653C40.8656 81.6928 40.4107 81.3516 40.6382 81.0483Z" fill="black"/>
    <path d="M65.961 77.2575C66.5297 77.5987 66.7192 78.0536 66.795 78.5085C67.0225 79.4183 66.9467 80.4039 67.1741 81.3516C67.3636 82.2614 67.9323 83.1333 68.0839 84.081C68.2735 85.0667 68.8421 87.1516 69.0695 88.1752C69.1453 88.4026 68.9937 88.668 68.7284 88.7059C68.5767 88.7438 68.463 88.7059 68.3493 88.6301C67.8565 88.2131 67.629 87.7961 67.3257 87.2654C66.8329 86.3555 66.4918 85.5216 66.1885 84.498C65.9231 83.5882 66.0369 82.6026 65.8094 81.6549C65.6199 80.7451 65.0891 79.8732 64.8996 78.9255C64.7859 78.4706 64.748 77.9778 65.0891 77.4091C65.3166 77.1817 65.6957 77.1059 65.961 77.2575Z" fill="black"/>
    <path d="M68.6903 87.2653C61.4497 86.8862 55.536 84.6117 49.7739 74.3385C54.6262 78.6222 60.3504 80.2523 66.3778 81.0104L67.1739 84.498C67.3256 85.1045 68.2354 86.8862 68.6903 87.2653Z" fill="black"/>
    <path d="M68.3871 85.8627C69.676 88.2889 70.4342 91.3215 69.6381 94.0131C69.0316 95.9085 67.2878 97.3111 65.3923 97.8418C60.995 99.017 55.9152 97.1595 52.0106 95.0745C47.1963 92.383 43.6329 87.8719 41.3584 82.9438C41.2067 82.5647 41.7374 82.2614 41.9649 82.6405C42.761 84.2327 43.6708 85.7869 44.6943 87.1895C45.7178 88.63 46.893 89.9568 48.2198 91.132C52.0865 94.6196 57.3178 96.7804 62.5492 96.7804C67.9322 96.6287 69.9793 93.7856 68.7283 88.5542C68.5388 87.7202 68.2355 86.8483 67.8185 86.1281C67.591 85.8248 68.1597 85.4836 68.3871 85.8627Z" fill="black"/>
    <path d="M83.0578 40.3346C83.7401 43.5189 81.4656 46.9307 81.4656 55.4222C81.4656 64.1032 79.8734 73.5425 73.3153 80.1006C67.6669 85.749 61.1846 85.5215 53.5649 79.5699C52.5035 78.7359 48.7885 75.9307 47.8408 74.983C46.7414 73.8836 46.1349 73.0876 45.6042 72.2536C45.1493 71.4954 45.263 67.098 44.6185 66.0745C42.9506 63.3072 42.6094 66.3019 40.4486 63.8758C37.4538 60.6157 33.8525 54.0575 35.6342 42.4575C38.5153 23.6549 53.4133 21.4562 64.4447 23.5411C75.5519 25.664 81.2382 31.9568 83.0578 40.3346Z" fill="white"/>
    <path d="M42.3439 67.2496C41.472 65.8091 40.3726 64.5202 39.3491 63.1934C38.3256 61.7908 37.4916 60.3124 36.8092 58.7202C32.9426 49.3568 33.5112 37.1124 40.3726 29.2274C45.0733 23.8444 52.5034 22.0627 59.3269 22.4418C66.1504 22.8588 73.2393 24.6026 78.2811 29.5307C81.2001 32.3738 83.0576 36.1647 83.8916 40.1072C84.1569 41.3581 83.9674 42.7228 83.6641 43.898C82.7922 47.196 81.9583 50.3425 81.8824 53.7542C81.9203 58.834 81.7687 64.0274 80.2903 68.9176C79.2288 72.1777 77.9779 75.4379 76.0066 78.281C73.9596 81.1621 70.889 83.4745 67.3635 84.1568C60.2746 85.5974 53.6406 81.1241 48.94 76.2719C48.7504 76.0444 49.0158 75.7791 49.2432 75.9307C51.9347 77.9777 54.702 79.8732 57.6968 81.1621C66.34 85.1425 73.5047 81.4653 77.2955 73.1255C80.4798 67.0601 81.3896 60.5019 81.1243 53.7163C81.1243 52.0104 81.2001 50.3045 81.4275 48.5987C81.655 46.1346 82.489 43.6706 82.4511 41.2444C81.8066 37.3019 79.987 33.5111 77.2576 30.5921C70.7752 23.7307 58.3413 21.7215 49.6223 24.83C39.3491 28.4693 36.5818 38.8183 36.0132 48.7124C35.6341 54.6261 37.3779 60.4261 41.8511 64.4823L43.6328 66.3398C44.2393 67.1738 42.9504 68.1594 42.3439 67.2496Z" fill="black"/>
    <path d="M46.8173 55.1947C46.8173 55.1947 45.6422 49.5085 40.1075 50.1908C35.331 50.7974 33.6631 62.2457 44.5049 65.43" fill="white"/>
    <path d="M44.0116 60.464C43.1397 59.9712 42.5332 59.1372 42.4953 58.1137C42.5332 57.3555 42.6469 56.4836 42.4574 55.7255C42.3436 55.0052 41.5855 54.8157 41.0168 54.8536C40.4103 54.9673 40.0312 55.7255 39.9175 56.332C39.9175 56.3699 39.8796 56.4836 39.8796 56.5216C39.8417 56.7111 39.5384 56.7111 39.4626 56.5216C38.9698 55.0431 40.0691 53.4131 41.6613 53.6026C43.8979 53.7542 44.2012 56.1046 43.7842 57.8863C43.5567 58.6444 43.86 59.3268 44.277 59.9712L44.3528 60.0849C44.5423 60.3124 44.2391 60.6157 44.0116 60.464Z" fill="black"/>
    <path d="M74.3386 51.1764C74.9072 53.8679 75.9687 56.3699 77.2955 58.7202C78.4706 61.6013 75.4379 64.3307 72.7464 64.217C72.4432 64.217 72.4053 63.8 72.6706 63.7242C74.3765 63.1934 75.9307 62.0562 76.1961 60.3124C76.3098 59.7817 76.1582 59.3268 75.8928 58.8719C74.6419 56.5215 73.8837 53.83 74.0732 51.1764C74.0732 50.9869 74.3386 50.9869 74.3386 51.1764Z" fill="black"/>
    <path d="M46.6276 55.2326C45.7557 52.996 43.8603 50.8731 41.3204 50.911C41.093 50.8731 40.7139 50.9489 40.4865 50.9489C39.842 50.9869 39.3113 51.2143 38.8185 51.6692C36.3923 54.0954 36.8093 58.379 38.7806 61.0705C39.4629 62.0182 40.3348 62.8522 41.3204 63.5346C42.3061 64.2169 43.4054 64.7476 44.5806 65.2026C44.8459 65.2784 44.7322 65.6954 44.4669 65.6575C41.927 65.1267 39.5008 63.8758 37.8329 61.7908C35.2551 58.6823 34.7244 53.4888 37.795 50.4561C38.4773 49.8496 39.425 49.3947 40.3727 49.3947C40.676 49.3947 41.1309 49.3189 41.4342 49.3947C43.0263 49.4705 44.5427 50.2666 45.5283 51.5176C46.4002 52.579 46.893 53.8679 47.0446 55.1568C47.0446 55.3842 46.7035 55.4601 46.6276 55.2326Z" fill="black"/>
    <path d="M71.4574 68.0078C69.0313 70.3203 64.4444 68.4627 63.2313 65.6575C63.0797 65.3163 63.4587 65.0131 63.762 65.1647C64.4065 65.5059 64.9751 65.8471 65.5816 66.1124C67.3254 66.9085 69.145 67.5529 71.0784 67.3634C71.4574 67.2876 71.7228 67.7425 71.4574 68.0078Z" fill="black"/>
    <path d="M65.7708 47.1582C66.6048 47.2719 67.2493 46.4 66.946 45.566C66.7944 45.1111 66.529 44.6942 66.112 44.4288C64.8231 43.6327 60.0088 43.5569 57.4689 45.3765C55.1944 47.0445 61.98 46.6275 65.7708 47.1582Z" fill="black"/>
    <path d="M76.2717 47.5752C75.5894 47.5752 75.1724 46.7033 75.5136 45.983C75.7031 45.604 75.9685 45.2628 76.3476 45.0732C77.5227 44.5046 80.6691 44.8458 82.0717 46.7791C83.3227 48.485 79.4181 47.5373 76.2717 47.5752Z" fill="black"/>
    <path d="M64.3682 52.0484C62.4349 51.2144 60.2362 51.4419 58.2271 51.8968C57.9996 51.9726 57.848 51.6693 58.0375 51.5177C59.7813 50.0772 63.0793 49.8876 64.482 51.8589C64.5957 51.9347 64.5199 52.0863 64.3682 52.0484Z" fill="black"/>
    <path d="M79.2661 52.8445C78.3563 52.2 77.0295 52.3138 75.968 52.4275C75.589 52.4654 75.2099 52.5412 74.7929 52.6549C74.6792 52.6928 74.5654 52.5033 74.6412 52.4275L74.7171 52.3517C75.6648 51.3661 77.1432 51.1386 78.4321 51.6314C78.887 51.821 79.3419 52.0863 79.5694 52.617C79.6831 52.8066 79.4177 52.9961 79.2661 52.8445Z" fill="black"/>
    <path d="M84.7735 27.9738C85.4558 26.3817 85.4558 24.6379 84.3186 23.1215C81.0205 18.7621 70.8232 22.0601 65.1369 20.2405C56.6075 17.4732 46.031 17.132 39.814 27.3673C38.2598 29.9451 37.5016 30.6653 35.3029 32.7124C33.0284 34.8353 31.2467 38.7399 31.0951 44.0849C30.7539 54.8131 39.1696 64.1385 39.1696 64.1385C39.5866 64.7072 39.9656 65.2 40.3068 65.617C43.3395 69.2562 44.2872 76.2693 43.3774 65.2C33.9382 61.5608 35.6441 50.9843 40.231 50.4157C45.0833 49.8091 46.5996 54.1307 46.865 55.1921C50.1251 53.1072 48.95 48.6719 48.5709 44.5398C51.1107 43.4026 53.2715 40.6732 54.4088 38.2091C55.6598 39.9529 57.1761 41.3176 58.9957 41.4693C60.929 41.6588 62.0663 40.0287 62.4454 37.7163C64.9473 41.0144 69.3826 45.1085 76.3578 45.9046C79.6938 46.2836 82.4611 44.881 84.3186 42.5686C84.8114 42.6444 85.2663 42.6823 85.7212 42.6444C90.6114 42.1516 96.0702 32.2575 84.7735 27.9738Z" fill="black"/>
    <path d="M66.3399 59.7438C64.5961 59.7817 59.2131 59.8196 57.5451 59.8575C54.6641 59.8954 52.5033 57.3935 52.7686 54.5503C52.8065 53.6026 52.7686 52.2758 52.8065 51.3281C52.8824 48.8641 55.0811 46.7791 57.5451 46.8549L63.9516 46.9307C64.4445 46.9307 65.8471 46.9686 66.3399 46.9686C68.3869 46.9307 70.3203 48.4471 70.7752 50.4562C70.9268 51.0248 70.8889 51.6314 70.8889 52.1242V55.3464C70.851 57.7347 68.7281 59.7817 66.3399 59.7438ZM66.3399 58.9098C68.3111 58.9856 70.1307 57.2797 70.1686 55.3085C70.2065 54.285 70.1686 53.1856 70.1686 52.1242C70.3961 49.8118 68.6523 47.6889 66.302 47.7647C64.6719 47.8026 59.2131 47.8405 57.5072 47.8784C55.4601 47.8784 53.7164 49.736 53.868 51.783C53.868 52.0484 53.868 52.7307 53.868 52.9961C53.9059 53.8301 53.7922 55.2706 53.9817 56.0288C54.3608 57.6209 55.8771 58.834 57.5072 58.834H58.3033C59.4026 58.834 65.2026 58.9098 66.3399 58.9098Z" fill="black"/>
    <path d="M81.6171 47.9543L78.6223 47.9922C77.7883 48.0301 76.8027 47.8785 76.0824 48.3713C75.4001 48.8262 75.0968 49.6602 75.1347 50.4562C75.1347 51.4419 75.1347 52.4654 75.0968 53.451L75.0589 53.2994C75.5896 55.1569 76.3099 56.9386 77.4092 58.4928L77.0301 58.2654C77.3334 58.3412 77.8641 58.3412 78.1674 58.3412C79.3046 58.3791 80.6314 58.4549 81.7687 58.4549C82.8301 58.4549 83.8537 57.6588 84.0811 56.5974C84.1569 56.2941 84.1569 55.7634 84.1569 55.4602C84.1569 53.8301 84.1948 52.2379 84.119 50.6079C84.1948 49.1673 83.0955 47.8785 81.6171 47.9543ZM81.6171 46.817C83.6262 46.817 85.0288 48.7504 84.6877 50.6458C84.6118 52.2758 84.6498 53.868 84.6498 55.4981C84.8393 57.3935 83.702 59.0994 81.7308 59.251C80.8968 59.2889 80.1007 59.2889 79.3046 59.3268C78.8877 59.3268 77.8641 59.4026 77.485 59.4026C77.2955 59.4405 76.9922 59.4026 76.8027 59.4026C76.6511 59.4026 76.4994 59.2889 76.4236 59.1752C75.2484 57.4314 74.4144 55.4981 73.9216 53.4889C73.9216 52.2 73.8079 50.9111 73.9216 49.6222C74.1491 48.1059 75.5138 46.817 77.068 46.7791C78.1295 46.7412 80.5556 46.817 81.6171 46.817Z" fill="black"/>
    <path d="M70.4718 50.3046C71.4953 49.8497 72.6326 49.6602 73.7698 49.736C74.1489 49.7739 74.528 49.8876 74.8692 50.1909L75.362 50.6079C75.8548 51.0249 75.2483 51.7451 74.7555 51.3281C74.1489 50.7974 73.4287 50.8732 72.7084 50.9111C71.9881 50.987 71.3058 51.1386 70.6234 51.4039C69.979 51.6693 69.562 50.7216 70.1685 50.4183L70.4718 50.3046Z" fill="black"/>
    <path d="M53.413 51.6693C53.1476 52.2758 52.8444 52.3516 52.3515 52.3137L51.2522 52.3517C49.0535 52.3517 46.8169 52.3137 44.6182 51.9726C43.86 51.9347 43.8221 50.8732 44.5803 50.8353L53.3751 50.532C53.6404 50.532 53.83 50.7974 53.7162 51.0249L53.413 51.6693Z" fill="black"/>
    <path d="M109.252 31.9569C132.263 76.2719 91.8142 126.273 43.5946 114.067C21.9489 108.684 4.54889 89.919 0.947585 67.8941C-3.14653 45.983 6.74758 22.4418 25.2469 10.0457C50.6077 -7.39216 85.7489 -1.59216 103.907 23.3516C104.021 23.4654 103.983 23.6549 103.831 23.7686C103.718 23.8823 103.528 23.8444 103.414 23.6928C100.912 20.4706 98.0691 17.5516 94.9606 14.9359C89.843 10.5765 83.8535 7.1647 77.5227 4.85228C45.3005 -6.82353 9.9319 12.5856 2.88092 46.2863C-5.07987 84.0431 27.0286 118.805 65.3162 113.612C94.8469 109.897 116.796 82.6405 114.37 52.9961C113.839 45.8314 111.944 38.7425 108.797 32.2222C108.721 32.1085 108.797 31.9569 108.911 31.881C109.025 31.8052 109.176 31.8431 109.252 31.9569Z" fill="black"/>
    </g>
    </svg>
    